<?xml version="1.0" encoding="utf-8"?>
<!-- Generator: Adobe Illustrator 16.0.0, SVG Export Plug-In . SVG Version: 6.00 Build 0)  -->
<!DOCTYPE svg PUBLIC "-//W3C//DTD SVG 1.1//EN" "http://www.w3.org/Graphics/SVG/1.1/DTD/svg11.dtd">
<svg version="1.1" id="Layer_1" xmlns="http://www.w3.org/2000/svg" xmlns:xlink="http://www.w3.org/1999/xlink" x="0px" y="0px"
	 width="48px" height="48px" viewBox="0 0 48 48" enable-background="new 0 0 48 48" xml:space="preserve">
<g>
	<defs>
		<rect id="SVGID_1_" width="48" height="48"/>
	</defs>
	<clipPath id="SVGID_2_">
		<use xlink:href="#SVGID_1_"  overflow="visible"/>
	</clipPath>
	<path clip-path="url(#SVGID_2_)" fill="#FFFFFF" d="M35.602,32.755l-5.878-5.879c0.956-1.481,1.521-3.24,1.521-5.132
		c0-5.235-4.262-9.494-9.496-9.494c-5.237,0-9.495,4.259-9.495,9.494c0,5.236,4.258,9.495,9.495,9.495
		c1.89,0,3.649-0.562,5.131-1.519l5.878,5.878c0.195,0.196,0.518,0.196,0.712,0l2.132-2.132
		C35.799,33.271,35.799,32.951,35.602,32.755 M15.27,21.744c0-3.571,2.906-6.479,6.479-6.479c3.573,0,6.478,2.908,6.478,6.479
		c0,3.573-2.905,6.479-6.478,6.479C18.175,28.224,15.27,25.317,15.27,21.744"/>
</g>
</svg>
