<?xml version="1.0" encoding="UTF-8"?>
<svg width="80px" height="80px" viewBox="0 0 80 80" version="1.1" xmlns="http://www.w3.org/2000/svg" xmlns:xlink="http://www.w3.org/1999/xlink">
    <!-- Generator: Sketch 52.2 (67145) - http://www.bohemiancoding.com/sketch -->
    <title>icon-elasticsearch-bb</title>
    <desc>Created with Sketch.</desc>
    <g id="icon-elasticsearch-bb" stroke="none" stroke-width="1" fill="none" fill-rule="evenodd">
        <g id="Group" transform="translate(15.000000, 15.000000)">
            <path d="M0,25 C0,27.1625 0.303125,29.25 0.81875,31.25 L31.25,31.25 C34.7015625,31.25 37.5,28.4515625 37.5,25 C37.5,21.5484375 34.7015625,18.75 31.25,18.75 L0.81875,18.75 C0.303125,20.75 0,22.8375 0,25" id="Fill-1" fill="#343741"></path>
            <path d="M42.0684375,11.9720312 C42.941875,11.1657812 43.754375,10.3017187 44.4996875,9.37515625 C39.916875,3.66578125 32.8903125,0.00015625 24.9996875,0.00015625 C15.123125,0.00015625 6.623125,5.74703125 2.5684375,14.0626562 L36.735625,14.0626562 C38.71375,14.0626562 40.6153125,13.3110937 42.0684375,11.9720312" id="Fill-3" fill="#FEC514"></path>
            <path d="M36.7354688,35.9375 L2.56828125,35.9375 C6.62453125,44.2546875 15.1229688,50 24.9995313,50 C32.8901563,50 39.9167188,46.334375 44.4995313,40.625 C43.7542188,39.6984375 42.9417188,38.834375 42.0682813,38.028125 C40.6151563,36.6875 38.7135938,35.9375 36.7354688,35.9375" id="Fill-6" fill="#00BFB3"></path>
        </g>
    </g>
</svg>